<svg width="22" height="22" viewBox="0 0 22 22" fill="none" xmlns="http://www.w3.org/2000/svg">
<path fill-rule="evenodd" clip-rule="evenodd" d="M12.8459 4.83982L5.36345 12.3223C5.25159 12.4339 5.17825 12.5782 5.15408 12.7343L4.63065 16.1452C4.61298 16.2604 4.62269 16.3781 4.65898 16.4889C4.69527 16.5996 4.75712 16.7003 4.83953 16.7827C4.92194 16.8651 5.0226 16.927 5.13335 16.9632C5.2441 16.9995 5.36184 17.0092 5.47704 16.9916L8.88862 16.4681C9.04467 16.4442 9.18901 16.3711 9.30069 16.2595L16.7831 8.77706C16.9223 8.63783 17.0005 8.44902 17.0005 8.25214C17.0005 8.05527 16.9223 7.86646 16.7831 7.72723L13.895 4.83908C13.7558 4.70012 13.5671 4.62207 13.3705 4.62207C13.1738 4.62207 12.9851 4.70012 12.8459 4.83908M6.25217 15.3708L6.58479 13.1999L13.3708 6.41383L15.2084 8.25214L8.42236 15.0382L6.25217 15.3708Z" fill="#8F8F8F"/>
<path d="M11.542 7.82974L12.329 7.04199L14.736 9.44755L13.9483 10.2353L11.542 7.82974Z" fill="#8F8F8F"/>
</svg>
